<svg width="84" height="15" viewBox="0 0 84 15" fill="none" xmlns="http://www.w3.org/2000/svg">
<path d="M6.26855 2.30176C4.85645 2.30176 3.74023 2.77344 2.91992 3.7168C2.10547 4.6543 1.69824 5.94043 1.69824 7.5752C1.69824 9.25684 2.09082 10.5576 2.87598 11.4775C3.66699 12.3916 4.79199 12.8486 6.25098 12.8486C7.14746 12.8486 8.16992 12.6875 9.31836 12.3652V13.6748C8.42773 14.0088 7.3291 14.1758 6.02246 14.1758C4.12988 14.1758 2.66797 13.6016 1.63672 12.4531C0.611328 11.3047 0.0986328 9.67285 0.0986328 7.55762C0.0986328 6.2334 0.344727 5.07324 0.836914 4.07715C1.33496 3.08105 2.0498 2.31348 2.98145 1.77441C3.91895 1.23535 5.02051 0.96582 6.28613 0.96582C7.63379 0.96582 8.81152 1.21191 9.81934 1.7041L9.18652 2.9873C8.21387 2.53027 7.24121 2.30176 6.26855 2.30176ZM20.2168 9.1748C20.2168 10.7451 19.8213 11.9727 19.0303 12.8574C18.2393 13.7363 17.1465 14.1758 15.752 14.1758C14.8906 14.1758 14.126 13.9736 13.458 13.5693C12.79 13.165 12.2744 12.585 11.9111 11.8291C11.5479 11.0732 11.3662 10.1885 11.3662 9.1748C11.3662 7.60449 11.7588 6.38281 12.5439 5.50977C13.3291 4.63086 14.4189 4.19141 15.8135 4.19141C17.1611 4.19141 18.2305 4.63965 19.0215 5.53613C19.8184 6.43262 20.2168 7.64551 20.2168 9.1748ZM12.8779 9.1748C12.8779 10.4053 13.124 11.3428 13.6162 11.9873C14.1084 12.6318 14.832 12.9541 15.7871 12.9541C16.7422 12.9541 17.4658 12.6348 17.958 11.9961C18.4561 11.3516 18.7051 10.4111 18.7051 9.1748C18.7051 7.9502 18.4561 7.02148 17.958 6.38867C17.4658 5.75 16.7363 5.43066 15.7695 5.43066C14.8145 5.43066 14.0938 5.74414 13.6074 6.37109C13.1211 6.99805 12.8779 7.93262 12.8779 9.1748ZM29.3398 12.708H29.2607C28.5869 13.6865 27.5791 14.1758 26.2373 14.1758C24.9775 14.1758 23.9961 13.7451 23.293 12.8838C22.5957 12.0225 22.2471 10.7979 22.2471 9.20996C22.2471 7.62207 22.5986 6.38867 23.3018 5.50977C24.0049 4.63086 24.9834 4.19141 26.2373 4.19141C27.5439 4.19141 28.5459 4.66602 29.2432 5.61523H29.3574L29.2959 4.9209L29.2607 4.24414V0.324219H30.7197V14H29.5332L29.3398 12.708ZM26.4219 12.9541C27.418 12.9541 28.1387 12.6846 28.584 12.1455C29.0352 11.6006 29.2607 10.7246 29.2607 9.51758V9.20996C29.2607 7.84473 29.0322 6.87207 28.5752 6.29199C28.124 5.70605 27.4004 5.41309 26.4043 5.41309C25.5488 5.41309 24.8926 5.74707 24.4355 6.41504C23.9844 7.07715 23.7588 8.01465 23.7588 9.22754C23.7588 10.458 23.9844 11.3867 24.4355 12.0137C24.8867 12.6406 25.5488 12.9541 26.4219 12.9541ZM37.8916 14.1758C36.4678 14.1758 35.3428 13.7422 34.5166 12.875C33.6963 12.0078 33.2861 10.8037 33.2861 9.2627C33.2861 7.70996 33.667 6.47656 34.4287 5.5625C35.1963 4.64844 36.2246 4.19141 37.5137 4.19141C38.7207 4.19141 39.6758 4.58984 40.3789 5.38672C41.082 6.17773 41.4336 7.22363 41.4336 8.52441V9.44727H34.7979C34.8271 10.5781 35.1113 11.4365 35.6504 12.0225C36.1953 12.6084 36.96 12.9014 37.9443 12.9014C38.9814 12.9014 40.0068 12.6846 41.0205 12.251V13.5518C40.5049 13.7744 40.0156 13.9326 39.5527 14.0264C39.0957 14.126 38.542 14.1758 37.8916 14.1758ZM37.4961 5.41309C36.7227 5.41309 36.1045 5.66504 35.6416 6.16895C35.1846 6.67285 34.915 7.37012 34.833 8.26074H39.8691C39.8691 7.34082 39.6641 6.6377 39.2539 6.15137C38.8438 5.65918 38.2578 5.41309 37.4961 5.41309Z" fill="white"/>
<path d="M51.9365 14H43.1035V12.8311L49.9238 2.49512H43.3145V1.15039H51.7432V2.31934L44.9229 12.6465H51.9365V14ZM62.5273 9.1748C62.5273 10.7451 62.1318 11.9727 61.3408 12.8574C60.5498 13.7363 59.457 14.1758 58.0625 14.1758C57.2012 14.1758 56.4365 13.9736 55.7686 13.5693C55.1006 13.165 54.585 12.585 54.2217 11.8291C53.8584 11.0732 53.6768 10.1885 53.6768 9.1748C53.6768 7.60449 54.0693 6.38281 54.8545 5.50977C55.6396 4.63086 56.7295 4.19141 58.124 4.19141C59.4717 4.19141 60.541 4.63965 61.332 5.53613C62.1289 6.43262 62.5273 7.64551 62.5273 9.1748ZM55.1885 9.1748C55.1885 10.4053 55.4346 11.3428 55.9268 11.9873C56.4189 12.6318 57.1426 12.9541 58.0977 12.9541C59.0527 12.9541 59.7764 12.6348 60.2686 11.9961C60.7666 11.3516 61.0156 10.4111 61.0156 9.1748C61.0156 7.9502 60.7666 7.02148 60.2686 6.38867C59.7764 5.75 59.0469 5.43066 58.0801 5.43066C57.125 5.43066 56.4043 5.74414 55.918 6.37109C55.4316 6.99805 55.1885 7.93262 55.1885 9.1748ZM71.6855 14V7.76855C71.6855 6.9834 71.5068 6.39746 71.1494 6.01074C70.792 5.62402 70.2324 5.43066 69.4707 5.43066C68.4629 5.43066 67.7246 5.70312 67.2559 6.24805C66.7871 6.79297 66.5527 7.69238 66.5527 8.94629V14H65.0938V4.36719H66.2803L66.5176 5.68555H66.5879C66.8867 5.21094 67.3057 4.84473 67.8447 4.58691C68.3838 4.32324 68.9844 4.19141 69.6465 4.19141C70.8066 4.19141 71.6797 4.47266 72.2656 5.03516C72.8516 5.5918 73.1445 6.48535 73.1445 7.71582V14H71.6855ZM80.2197 14.1758C78.7959 14.1758 77.6709 13.7422 76.8447 12.875C76.0244 12.0078 75.6143 10.8037 75.6143 9.2627C75.6143 7.70996 75.9951 6.47656 76.7568 5.5625C77.5244 4.64844 78.5527 4.19141 79.8418 4.19141C81.0488 4.19141 82.0039 4.58984 82.707 5.38672C83.4102 6.17773 83.7617 7.22363 83.7617 8.52441V9.44727H77.126C77.1553 10.5781 77.4395 11.4365 77.9785 12.0225C78.5234 12.6084 79.2881 12.9014 80.2725 12.9014C81.3096 12.9014 82.335 12.6846 83.3486 12.251V13.5518C82.833 13.7744 82.3438 13.9326 81.8809 14.0264C81.4238 14.126 80.8701 14.1758 80.2197 14.1758ZM79.8242 5.41309C79.0508 5.41309 78.4326 5.66504 77.9697 6.16895C77.5127 6.67285 77.2432 7.37012 77.1611 8.26074H82.1973C82.1973 7.34082 81.9922 6.6377 81.582 6.15137C81.1719 5.65918 80.5859 5.41309 79.8242 5.41309Z" fill="#6C63FF"/>
</svg>
